<mxfile host="Electron" agent="Mozilla/5.0 (Windows NT 10.0; Win64; x64) AppleWebKit/537.36 (KHTML, like Gecko) draw.io/26.2.15 Chrome/134.0.6998.205 Electron/35.2.1 Safari/537.36" version="26.2.15">
  <diagram name="Page-1" id="N0a0t9EPoNQZTWMjrFMl">
    <mxGraphModel dx="2329" dy="1200" grid="1" gridSize="10" guides="1" tooltips="1" connect="1" arrows="1" fold="1" page="1" pageScale="1" pageWidth="850" pageHeight="1100" math="0" shadow="0">
      <root>
        <mxCell id="0" />
        <mxCell id="1" parent="0" />
        <mxCell id="Lms2Rw09FnlUKu-rwCS1-1" value="" style="shape=umlLifeline;perimeter=lifelinePerimeter;whiteSpace=wrap;html=1;container=1;dropTarget=0;collapsible=0;recursiveResize=0;outlineConnect=0;portConstraint=eastwest;newEdgeStyle={&quot;curved&quot;:0,&quot;rounded&quot;:0};participant=umlActor;labelBackgroundColor=none;fillColor=#A8DADC;strokeColor=#457B9D;fontColor=#1D3557;" parent="1" vertex="1">
          <mxGeometry x="10" width="20" height="1480" as="geometry" />
        </mxCell>
        <mxCell id="Lms2Rw09FnlUKu-rwCS1-2" value="DashBoardSceren" style="shape=umlLifeline;perimeter=lifelinePerimeter;whiteSpace=wrap;html=1;container=1;dropTarget=0;collapsible=0;recursiveResize=0;outlineConnect=0;portConstraint=eastwest;newEdgeStyle={&quot;curved&quot;:0,&quot;rounded&quot;:0};labelBackgroundColor=none;fillColor=#A8DADC;strokeColor=#457B9D;fontColor=#1D3557;" parent="1" vertex="1">
          <mxGeometry x="60" width="110" height="1330" as="geometry" />
        </mxCell>
        <mxCell id="Lms2Rw09FnlUKu-rwCS1-20" value="" style="html=1;points=[[0,0,0,0,5],[0,1,0,0,-5],[1,0,0,0,5],[1,1,0,0,-5]];perimeter=orthogonalPerimeter;outlineConnect=0;targetShapes=umlLifeline;portConstraint=eastwest;newEdgeStyle={&quot;curved&quot;:0,&quot;rounded&quot;:0};labelBackgroundColor=none;fillColor=#A8DADC;strokeColor=#457B9D;fontColor=#1D3557;" parent="Lms2Rw09FnlUKu-rwCS1-2" vertex="1">
          <mxGeometry x="47.5" y="70" width="15" height="80" as="geometry" />
        </mxCell>
        <mxCell id="Lms2Rw09FnlUKu-rwCS1-3" value="DSManager" style="shape=umlLifeline;perimeter=lifelinePerimeter;whiteSpace=wrap;html=1;container=1;dropTarget=0;collapsible=0;recursiveResize=0;outlineConnect=0;portConstraint=eastwest;newEdgeStyle={&quot;curved&quot;:0,&quot;rounded&quot;:0};labelBackgroundColor=none;fillColor=#A8DADC;strokeColor=#457B9D;fontColor=#1D3557;" parent="1" vertex="1">
          <mxGeometry x="1530" width="100" height="1550" as="geometry" />
        </mxCell>
        <mxCell id="Lms2Rw09FnlUKu-rwCS1-4" value="" style="html=1;points=[[0,0,0,0,5],[0,1,0,0,-5],[1,0,0,0,5],[1,1,0,0,-5]];perimeter=orthogonalPerimeter;outlineConnect=0;targetShapes=umlLifeline;portConstraint=eastwest;newEdgeStyle={&quot;curved&quot;:0,&quot;rounded&quot;:0};labelBackgroundColor=none;fillColor=#A8DADC;strokeColor=#457B9D;fontColor=#1D3557;" parent="Lms2Rw09FnlUKu-rwCS1-3" vertex="1">
          <mxGeometry x="42.5" y="170" width="15" height="40" as="geometry" />
        </mxCell>
        <mxCell id="Lms2Rw09FnlUKu-rwCS1-5" value="" style="html=1;points=[[0,0,0,0,5],[0,1,0,0,-5],[1,0,0,0,5],[1,1,0,0,-5]];perimeter=orthogonalPerimeter;outlineConnect=0;targetShapes=umlLifeline;portConstraint=eastwest;newEdgeStyle={&quot;curved&quot;:0,&quot;rounded&quot;:0};labelBackgroundColor=none;fillColor=#A8DADC;strokeColor=#457B9D;fontColor=#1D3557;" parent="Lms2Rw09FnlUKu-rwCS1-3" vertex="1">
          <mxGeometry x="42.5" y="500" width="15" height="40" as="geometry" />
        </mxCell>
        <mxCell id="Lms2Rw09FnlUKu-rwCS1-52" value="" style="html=1;points=[[0,0,0,0,5],[0,1,0,0,-5],[1,0,0,0,5],[1,1,0,0,-5]];perimeter=orthogonalPerimeter;outlineConnect=0;targetShapes=umlLifeline;portConstraint=eastwest;newEdgeStyle={&quot;curved&quot;:0,&quot;rounded&quot;:0};labelBackgroundColor=none;fillColor=#A8DADC;strokeColor=#457B9D;fontColor=#1D3557;" parent="Lms2Rw09FnlUKu-rwCS1-3" vertex="1">
          <mxGeometry x="42.5" y="750" width="15" height="40" as="geometry" />
        </mxCell>
        <mxCell id="Lms2Rw09FnlUKu-rwCS1-8" value="ManageSearchClass" style="shape=umlLifeline;perimeter=lifelinePerimeter;whiteSpace=wrap;html=1;container=1;dropTarget=0;collapsible=0;recursiveResize=0;outlineConnect=0;portConstraint=eastwest;newEdgeStyle={&quot;curved&quot;:0,&quot;rounded&quot;:0};labelBackgroundColor=none;fillColor=#A8DADC;strokeColor=#457B9D;fontColor=#1D3557;" parent="1" vertex="1">
          <mxGeometry x="180" width="130" height="1340" as="geometry" />
        </mxCell>
        <mxCell id="Lms2Rw09FnlUKu-rwCS1-9" value="" style="html=1;points=[[0,0,0,0,5],[0,1,0,0,-5],[1,0,0,0,5],[1,1,0,0,-5]];perimeter=orthogonalPerimeter;outlineConnect=0;targetShapes=umlLifeline;portConstraint=eastwest;newEdgeStyle={&quot;curved&quot;:0,&quot;rounded&quot;:0};labelBackgroundColor=none;fillColor=#A8DADC;strokeColor=#457B9D;fontColor=#1D3557;" parent="Lms2Rw09FnlUKu-rwCS1-8" vertex="1">
          <mxGeometry x="57.5" y="70" width="15" height="610" as="geometry" />
        </mxCell>
        <mxCell id="Lms2Rw09FnlUKu-rwCS1-10" value="BookingScreen" style="shape=umlLifeline;perimeter=lifelinePerimeter;whiteSpace=wrap;html=1;container=1;dropTarget=0;collapsible=0;recursiveResize=0;outlineConnect=0;portConstraint=eastwest;newEdgeStyle={&quot;curved&quot;:0,&quot;rounded&quot;:0};strokeColor=#457B9D;fontColor=#1D3557;fillColor=#A8DADC;" parent="1" vertex="1">
          <mxGeometry x="500" y="410" width="150" height="1080" as="geometry" />
        </mxCell>
        <mxCell id="Lms2Rw09FnlUKu-rwCS1-11" value="" style="html=1;points=[[0,0,0,0,5],[0,1,0,0,-5],[1,0,0,0,5],[1,1,0,0,-5]];perimeter=orthogonalPerimeter;outlineConnect=0;targetShapes=umlLifeline;portConstraint=eastwest;newEdgeStyle={&quot;curved&quot;:0,&quot;rounded&quot;:0};labelBackgroundColor=none;fillColor=#A8DADC;strokeColor=#457B9D;fontColor=#1D3557;" parent="Lms2Rw09FnlUKu-rwCS1-10" vertex="1">
          <mxGeometry x="67.5" y="140" width="15" height="80" as="geometry" />
        </mxCell>
        <mxCell id="Lms2Rw09FnlUKu-rwCS1-14" value="CalendarViewSceren" style="shape=umlLifeline;perimeter=lifelinePerimeter;whiteSpace=wrap;html=1;container=1;dropTarget=0;collapsible=0;recursiveResize=0;outlineConnect=0;portConstraint=eastwest;newEdgeStyle={&quot;curved&quot;:0,&quot;rounded&quot;:0};labelBackgroundColor=none;fillColor=#A8DADC;strokeColor=#457B9D;fontColor=#1D3557;" parent="1" vertex="1">
          <mxGeometry x="340" y="220" width="130" height="410" as="geometry" />
        </mxCell>
        <mxCell id="Lms2Rw09FnlUKu-rwCS1-32" value="" style="html=1;points=[[0,0,0,0,5],[0,1,0,0,-5],[1,0,0,0,5],[1,1,0,0,-5]];perimeter=orthogonalPerimeter;outlineConnect=0;targetShapes=umlLifeline;portConstraint=eastwest;newEdgeStyle={&quot;curved&quot;:0,&quot;rounded&quot;:0};labelBackgroundColor=none;fillColor=#A8DADC;strokeColor=#457B9D;fontColor=#1D3557;" parent="Lms2Rw09FnlUKu-rwCS1-14" vertex="1">
          <mxGeometry x="57.5" y="80" width="15" height="70" as="geometry" />
        </mxCell>
        <mxCell id="Lms2Rw09FnlUKu-rwCS1-17" value="ManageCreationClass" style="shape=umlLifeline;perimeter=lifelinePerimeter;whiteSpace=wrap;html=1;container=1;dropTarget=0;collapsible=0;recursiveResize=0;outlineConnect=0;portConstraint=eastwest;newEdgeStyle={&quot;curved&quot;:0,&quot;rounded&quot;:0};labelBackgroundColor=none;fillColor=#A8DADC;strokeColor=#457B9D;fontColor=#1D3557;" parent="1" vertex="1">
          <mxGeometry x="645" y="660" width="130" height="870" as="geometry" />
        </mxCell>
        <mxCell id="Lms2Rw09FnlUKu-rwCS1-58" value="" style="html=1;points=[[0,0,0,0,5],[0,1,0,0,-5],[1,0,0,0,5],[1,1,0,0,-5]];perimeter=orthogonalPerimeter;outlineConnect=0;targetShapes=umlLifeline;portConstraint=eastwest;newEdgeStyle={&quot;curved&quot;:0,&quot;rounded&quot;:0};labelBackgroundColor=none;fillColor=#A8DADC;strokeColor=#457B9D;fontColor=#1D3557;" parent="Lms2Rw09FnlUKu-rwCS1-17" vertex="1">
          <mxGeometry x="57.5" y="70" width="15" height="500" as="geometry" />
        </mxCell>
        <mxCell id="EBZgVdZOEo4wGRid4a5R-24" value="" style="html=1;points=[[0,0,0,0,5],[0,1,0,0,-5],[1,0,0,0,5],[1,1,0,0,-5]];perimeter=orthogonalPerimeter;outlineConnect=0;targetShapes=umlLifeline;portConstraint=eastwest;newEdgeStyle={&quot;curved&quot;:0,&quot;rounded&quot;:0};labelBackgroundColor=none;fillColor=#A8DADC;strokeColor=#457B9D;fontColor=#1D3557;" parent="Lms2Rw09FnlUKu-rwCS1-17" vertex="1">
          <mxGeometry x="57.5" y="690" width="15" height="100" as="geometry" />
        </mxCell>
        <mxCell id="Lms2Rw09FnlUKu-rwCS1-19" value="Search Dates" style="text;html=1;align=center;verticalAlign=middle;resizable=0;points=[];autosize=1;strokeColor=none;fillColor=none;" parent="1" vertex="1">
          <mxGeometry x="5" y="68" width="100" height="30" as="geometry" />
        </mxCell>
        <mxCell id="Lms2Rw09FnlUKu-rwCS1-21" value="" style="endArrow=open;endFill=1;endSize=12;html=1;rounded=0;labelBackgroundColor=none;fontColor=default;strokeColor=#457B9D;" parent="1" target="Lms2Rw09FnlUKu-rwCS1-20" edge="1">
          <mxGeometry width="160" relative="1" as="geometry">
            <mxPoint x="20" y="90" as="sourcePoint" />
            <mxPoint x="98" y="90" as="targetPoint" />
          </mxGeometry>
        </mxCell>
        <mxCell id="Lms2Rw09FnlUKu-rwCS1-22" value="" style="endArrow=open;endFill=1;endSize=12;html=1;rounded=0;labelBackgroundColor=none;fontColor=default;strokeColor=#457B9D;" parent="1" edge="1">
          <mxGeometry width="160" relative="1" as="geometry">
            <mxPoint x="16.854838709677438" y="130" as="sourcePoint" />
            <mxPoint x="105" y="130" as="targetPoint" />
          </mxGeometry>
        </mxCell>
        <mxCell id="Lms2Rw09FnlUKu-rwCS1-23" value="Start_Search()" style="text;html=1;align=center;verticalAlign=middle;resizable=0;points=[];autosize=1;strokeColor=none;fillColor=none;" parent="1" vertex="1">
          <mxGeometry x="10" y="98" width="100" height="30" as="geometry" />
        </mxCell>
        <mxCell id="Lms2Rw09FnlUKu-rwCS1-24" value="" style="endArrow=open;endFill=1;endSize=12;html=1;rounded=0;labelBackgroundColor=none;fontColor=default;strokeColor=#457B9D;" parent="1" edge="1">
          <mxGeometry width="160" relative="1" as="geometry">
            <mxPoint x="237.5" y="80" as="sourcePoint" />
            <mxPoint x="120" y="80" as="targetPoint" />
            <Array as="points">
              <mxPoint x="199.5" y="80" />
              <mxPoint x="149.5" y="80" />
            </Array>
          </mxGeometry>
        </mxCell>
        <mxCell id="Lms2Rw09FnlUKu-rwCS1-25" value="Display()" style="text;html=1;align=center;verticalAlign=middle;resizable=0;points=[];autosize=1;strokeColor=none;fillColor=none;" parent="1" vertex="1">
          <mxGeometry x="145" y="50" width="70" height="30" as="geometry" />
        </mxCell>
        <mxCell id="Lms2Rw09FnlUKu-rwCS1-26" value="Retrive_dates()" style="text;html=1;align=center;verticalAlign=middle;resizable=0;points=[];autosize=1;strokeColor=none;fillColor=none;fontColor=#1D3557;labelBackgroundColor=none;" parent="1" vertex="1">
          <mxGeometry x="125" y="118" width="110" height="30" as="geometry" />
        </mxCell>
        <mxCell id="Lms2Rw09FnlUKu-rwCS1-27" value="" style="endArrow=open;endFill=1;endSize=12;html=1;rounded=0;labelBackgroundColor=none;fontColor=default;strokeColor=#457B9D;" parent="1" target="Lms2Rw09FnlUKu-rwCS1-9" edge="1">
          <mxGeometry width="160" relative="1" as="geometry">
            <mxPoint x="120.00483870967744" y="148" as="sourcePoint" />
            <mxPoint x="208.15" y="148" as="targetPoint" />
          </mxGeometry>
        </mxCell>
        <mxCell id="Lms2Rw09FnlUKu-rwCS1-28" value="" style="endArrow=open;endFill=1;endSize=12;html=1;rounded=0;labelBackgroundColor=none;fontColor=default;strokeColor=#457B9D;" parent="1" target="Lms2Rw09FnlUKu-rwCS1-4" edge="1">
          <mxGeometry width="160" relative="1" as="geometry">
            <mxPoint x="250" y="170" as="sourcePoint" />
            <mxPoint x="1325" y="170" as="targetPoint" />
            <Array as="points">
              <mxPoint x="320" y="170" />
            </Array>
          </mxGeometry>
        </mxCell>
        <mxCell id="Lms2Rw09FnlUKu-rwCS1-29" value="queryCalendar()" style="text;html=1;align=center;verticalAlign=middle;resizable=0;points=[];autosize=1;strokeColor=none;fillColor=none;" parent="1" vertex="1">
          <mxGeometry x="850" y="140" width="110" height="30" as="geometry" />
        </mxCell>
        <mxCell id="Lms2Rw09FnlUKu-rwCS1-30" value="Return Results" style="html=1;verticalAlign=bottom;endArrow=open;dashed=1;endSize=8;curved=0;rounded=0;strokeColor=#457B9D;fontColor=default;labelBackgroundColor=none;" parent="1" source="Lms2Rw09FnlUKu-rwCS1-3" edge="1">
          <mxGeometry relative="1" as="geometry">
            <mxPoint x="1325" y="210" as="sourcePoint" />
            <mxPoint x="250" y="210" as="targetPoint" />
          </mxGeometry>
        </mxCell>
        <mxCell id="Lms2Rw09FnlUKu-rwCS1-31" value="" style="endArrow=open;endFill=1;endSize=12;html=1;rounded=0;labelBackgroundColor=none;fontColor=default;strokeColor=#457B9D;" parent="1" edge="1">
          <mxGeometry width="160" relative="1" as="geometry">
            <mxPoint x="253" y="300" as="sourcePoint" />
            <mxPoint x="400" y="300" as="targetPoint" />
          </mxGeometry>
        </mxCell>
        <mxCell id="Lms2Rw09FnlUKu-rwCS1-33" value="ShowResults()" style="text;html=1;align=center;verticalAlign=middle;resizable=0;points=[];autosize=1;strokeColor=none;fillColor=none;fontColor=#1D3557;labelBackgroundColor=none;" parent="1" vertex="1">
          <mxGeometry x="280" y="270" width="100" height="30" as="geometry" />
        </mxCell>
        <mxCell id="Lms2Rw09FnlUKu-rwCS1-34" value="" style="endArrow=open;endFill=1;endSize=12;html=1;rounded=0;labelBackgroundColor=none;fontColor=default;strokeColor=#457B9D;" parent="1" edge="1">
          <mxGeometry width="160" relative="1" as="geometry">
            <mxPoint x="20.00352941176464" y="330" as="sourcePoint" />
            <mxPoint x="400" y="330" as="targetPoint" />
          </mxGeometry>
        </mxCell>
        <mxCell id="Lms2Rw09FnlUKu-rwCS1-36" value="Watch Results &amp;amp; Select Date ()" style="text;html=1;align=center;verticalAlign=middle;resizable=0;points=[];autosize=1;strokeColor=none;fillColor=none;" parent="1" vertex="1">
          <mxGeometry x="50" y="300" width="190" height="30" as="geometry" />
        </mxCell>
        <mxCell id="Lms2Rw09FnlUKu-rwCS1-39" value="Return_selection" style="html=1;verticalAlign=bottom;endArrow=open;dashed=1;endSize=8;curved=0;rounded=0;strokeColor=#457B9D;fontColor=default;labelBackgroundColor=none;" parent="1" edge="1">
          <mxGeometry relative="1" as="geometry">
            <mxPoint x="390" y="360" as="sourcePoint" />
            <mxPoint x="250" y="360" as="targetPoint" />
          </mxGeometry>
        </mxCell>
        <mxCell id="Lms2Rw09FnlUKu-rwCS1-40" value="Create" style="html=1;verticalAlign=bottom;endArrow=open;dashed=1;endSize=8;curved=0;rounded=0;strokeColor=#457B9D;fontColor=default;labelBackgroundColor=none;" parent="1" edge="1">
          <mxGeometry x="0.0101" relative="1" as="geometry">
            <mxPoint x="250" y="410" as="sourcePoint" />
            <mxPoint x="500" y="410" as="targetPoint" />
            <mxPoint as="offset" />
          </mxGeometry>
        </mxCell>
        <mxCell id="Lms2Rw09FnlUKu-rwCS1-41" value="" style="endArrow=open;endFill=1;endSize=12;html=1;rounded=0;labelBackgroundColor=none;fontColor=default;strokeColor=#457B9D;" parent="1" source="Lms2Rw09FnlUKu-rwCS1-9" edge="1">
          <mxGeometry width="160" relative="1" as="geometry">
            <mxPoint x="245" y="500" as="sourcePoint" />
            <mxPoint x="1570" y="500" as="targetPoint" />
            <Array as="points" />
          </mxGeometry>
        </mxCell>
        <mxCell id="Lms2Rw09FnlUKu-rwCS1-42" value="queryBookings()" style="text;html=1;align=center;verticalAlign=middle;resizable=0;points=[];autosize=1;strokeColor=none;fillColor=none;" parent="1" vertex="1">
          <mxGeometry x="850" y="470" width="110" height="30" as="geometry" />
        </mxCell>
        <mxCell id="Lms2Rw09FnlUKu-rwCS1-43" value="Return Results" style="html=1;verticalAlign=bottom;endArrow=open;dashed=1;endSize=8;curved=0;rounded=0;strokeColor=#457B9D;fontColor=default;labelBackgroundColor=none;exitX=0;exitY=1;exitDx=0;exitDy=-5;exitPerimeter=0;" parent="1" source="Lms2Rw09FnlUKu-rwCS1-5" edge="1">
          <mxGeometry relative="1" as="geometry">
            <mxPoint x="1322.5" y="580" as="sourcePoint" />
            <mxPoint x="250" y="535" as="targetPoint" />
          </mxGeometry>
        </mxCell>
        <mxCell id="Lms2Rw09FnlUKu-rwCS1-45" value="" style="endArrow=open;endFill=1;endSize=12;html=1;rounded=0;strokeColor=#457B9D;fontColor=default;labelBackgroundColor=none;" parent="1" target="Lms2Rw09FnlUKu-rwCS1-11" edge="1">
          <mxGeometry width="160" relative="1" as="geometry">
            <mxPoint x="250" y="565" as="sourcePoint" />
            <mxPoint x="380" y="565" as="targetPoint" />
          </mxGeometry>
        </mxCell>
        <mxCell id="Lms2Rw09FnlUKu-rwCS1-47" value="Display()" style="text;html=1;align=center;verticalAlign=middle;resizable=0;points=[];autosize=1;strokeColor=none;fillColor=none;" parent="1" vertex="1">
          <mxGeometry x="400" y="535" width="70" height="30" as="geometry" />
        </mxCell>
        <mxCell id="Lms2Rw09FnlUKu-rwCS1-48" value="" style="endArrow=open;endFill=1;endSize=12;html=1;rounded=0;labelBackgroundColor=none;fontColor=default;strokeColor=#457B9D;" parent="1" edge="1">
          <mxGeometry width="160" relative="1" as="geometry">
            <mxPoint x="20.00352941176464" y="600" as="sourcePoint" />
            <mxPoint x="570" y="600" as="targetPoint" />
          </mxGeometry>
        </mxCell>
        <mxCell id="Lms2Rw09FnlUKu-rwCS1-57" value="Create" style="html=1;verticalAlign=bottom;endArrow=open;dashed=1;endSize=8;curved=0;rounded=0;strokeColor=#457B9D;fontColor=default;labelBackgroundColor=none;" parent="1" edge="1">
          <mxGeometry x="0.0101" relative="1" as="geometry">
            <mxPoint x="720" y="820" as="sourcePoint" />
            <mxPoint x="800" y="820" as="targetPoint" />
            <mxPoint as="offset" />
          </mxGeometry>
        </mxCell>
        <mxCell id="Lms2Rw09FnlUKu-rwCS1-59" value="" style="endArrow=open;endFill=1;endSize=12;html=1;rounded=0;strokeColor=#457B9D;fontColor=default;labelBackgroundColor=none;" parent="1" edge="1">
          <mxGeometry width="160" relative="1" as="geometry">
            <mxPoint x="720" y="890" as="sourcePoint" />
            <mxPoint x="859.4999999999998" y="890" as="targetPoint" />
          </mxGeometry>
        </mxCell>
        <mxCell id="Lms2Rw09FnlUKu-rwCS1-60" value="Display()" style="text;html=1;align=center;verticalAlign=middle;resizable=0;points=[];autosize=1;strokeColor=none;fillColor=none;" parent="1" vertex="1">
          <mxGeometry x="730" y="860" width="70" height="30" as="geometry" />
        </mxCell>
        <mxCell id="Lms2Rw09FnlUKu-rwCS1-61" value="" style="endArrow=open;endFill=1;endSize=12;html=1;rounded=0;strokeColor=#457B9D;fontColor=default;labelBackgroundColor=none;exitX=0.5;exitY=0.629;exitDx=0;exitDy=0;exitPerimeter=0;" parent="1" source="Lms2Rw09FnlUKu-rwCS1-1" edge="1" target="EBZgVdZOEo4wGRid4a5R-9">
          <mxGeometry width="160" relative="1" as="geometry">
            <mxPoint x="30" y="949.3799999999995" as="sourcePoint" />
            <mxPoint x="860" y="949.38" as="targetPoint" />
          </mxGeometry>
        </mxCell>
        <mxCell id="Lms2Rw09FnlUKu-rwCS1-62" value="provide booking details &amp;amp; submit()" style="text;html=1;align=center;verticalAlign=middle;resizable=0;points=[];autosize=1;strokeColor=none;fillColor=none;" parent="1" vertex="1">
          <mxGeometry x="280" y="900" width="200" height="30" as="geometry" />
        </mxCell>
        <mxCell id="EBZgVdZOEo4wGRid4a5R-1" value="watch results &amp;amp; select Booking()" style="text;html=1;align=center;verticalAlign=middle;resizable=0;points=[];autosize=1;strokeColor=none;fillColor=none;" parent="1" vertex="1">
          <mxGeometry x="55" y="578" width="190" height="30" as="geometry" />
        </mxCell>
        <mxCell id="EBZgVdZOEo4wGRid4a5R-2" value="Create" style="html=1;verticalAlign=bottom;endArrow=open;dashed=1;endSize=8;curved=0;rounded=0;strokeColor=#457B9D;fontColor=default;labelBackgroundColor=none;" parent="1" edge="1">
          <mxGeometry x="0.0101" relative="1" as="geometry">
            <mxPoint x="250" y="660" as="sourcePoint" />
            <mxPoint x="645" y="660" as="targetPoint" />
            <mxPoint as="offset" />
          </mxGeometry>
        </mxCell>
        <mxCell id="EBZgVdZOEo4wGRid4a5R-3" value="" style="endArrow=open;endFill=1;endSize=12;html=1;rounded=0;labelBackgroundColor=none;fontColor=default;strokeColor=#457B9D;" parent="1" edge="1">
          <mxGeometry width="160" relative="1" as="geometry">
            <mxPoint x="720" y="750" as="sourcePoint" />
            <mxPoint x="1570" y="750" as="targetPoint" />
            <Array as="points" />
          </mxGeometry>
        </mxCell>
        <mxCell id="EBZgVdZOEo4wGRid4a5R-4" value="queryBookingDetails()" style="text;html=1;align=center;verticalAlign=middle;resizable=0;points=[];autosize=1;strokeColor=none;fillColor=none;" parent="1" vertex="1">
          <mxGeometry x="1060" y="728" width="140" height="30" as="geometry" />
        </mxCell>
        <mxCell id="EBZgVdZOEo4wGRid4a5R-5" value="return booking details" style="html=1;verticalAlign=bottom;endArrow=open;dashed=1;endSize=8;curved=0;rounded=0;strokeColor=#457B9D;fontColor=default;labelBackgroundColor=none;" parent="1" edge="1">
          <mxGeometry relative="1" as="geometry">
            <mxPoint x="1570" y="790" as="sourcePoint" />
            <mxPoint x="720" y="790" as="targetPoint" />
          </mxGeometry>
        </mxCell>
        <mxCell id="EBZgVdZOEo4wGRid4a5R-8" value="RegistrationScreen" style="shape=umlLifeline;perimeter=lifelinePerimeter;whiteSpace=wrap;html=1;container=1;dropTarget=0;collapsible=0;recursiveResize=0;outlineConnect=0;portConstraint=eastwest;newEdgeStyle={&quot;curved&quot;:0,&quot;rounded&quot;:0};labelBackgroundColor=none;fillColor=#A8DADC;strokeColor=#457B9D;fontColor=#1D3557;" parent="1" vertex="1">
          <mxGeometry x="800" y="820" width="130" height="410" as="geometry" />
        </mxCell>
        <mxCell id="EBZgVdZOEo4wGRid4a5R-9" value="" style="html=1;points=[[0,0,0,0,5],[0,1,0,0,-5],[1,0,0,0,5],[1,1,0,0,-5]];perimeter=orthogonalPerimeter;outlineConnect=0;targetShapes=umlLifeline;portConstraint=eastwest;newEdgeStyle={&quot;curved&quot;:0,&quot;rounded&quot;:0};labelBackgroundColor=none;fillColor=#A8DADC;strokeColor=#457B9D;fontColor=#1D3557;" parent="EBZgVdZOEo4wGRid4a5R-8" vertex="1">
          <mxGeometry x="57.5" y="60" width="15" height="150" as="geometry" />
        </mxCell>
        <mxCell id="EBZgVdZOEo4wGRid4a5R-10" value="" style="html=1;align=left;spacingLeft=2;endArrow=block;rounded=0;edgeStyle=orthogonalEdgeStyle;curved=0;rounded=0;strokeColor=#457B9D;fontColor=default;labelBackgroundColor=none;" parent="1" edge="1">
          <mxGeometry x="-0.2941" y="58" relative="1" as="geometry">
            <mxPoint x="870" y="990" as="sourcePoint" />
            <Array as="points">
              <mxPoint x="900" y="1020" />
            </Array>
            <mxPoint x="-8" y="-30" as="offset" />
            <mxPoint x="875" y="1020" as="targetPoint" />
          </mxGeometry>
        </mxCell>
        <mxCell id="EBZgVdZOEo4wGRid4a5R-12" value="djeckBookingDetails()" style="edgeLabel;html=1;align=center;verticalAlign=middle;resizable=0;points=[];" parent="EBZgVdZOEo4wGRid4a5R-10" vertex="1" connectable="0">
          <mxGeometry x="-0.0118" y="5" relative="1" as="geometry">
            <mxPoint x="50" y="-1" as="offset" />
          </mxGeometry>
        </mxCell>
        <mxCell id="EBZgVdZOEo4wGRid4a5R-13" value="" style="endArrow=open;endFill=1;endSize=12;html=1;rounded=0;strokeColor=#457B9D;fontColor=default;labelBackgroundColor=none;exitX=0.5;exitY=0.629;exitDx=0;exitDy=0;exitPerimeter=0;" parent="1" target="EBZgVdZOEo4wGRid4a5R-18" edge="1">
          <mxGeometry width="160" relative="1" as="geometry">
            <mxPoint x="20" y="1270.62" as="sourcePoint" />
            <mxPoint x="1060" y="1270" as="targetPoint" />
          </mxGeometry>
        </mxCell>
        <mxCell id="EBZgVdZOEo4wGRid4a5R-23" value="Confirm()" style="edgeLabel;html=1;align=center;verticalAlign=middle;resizable=0;points=[];" parent="EBZgVdZOEo4wGRid4a5R-13" vertex="1" connectable="0">
          <mxGeometry x="-0.3414" y="3" relative="1" as="geometry">
            <mxPoint x="86" y="-8" as="offset" />
          </mxGeometry>
        </mxCell>
        <mxCell id="EBZgVdZOEo4wGRid4a5R-14" value="Registration" style="shape=umlLifeline;perimeter=lifelinePerimeter;whiteSpace=wrap;html=1;container=1;dropTarget=0;collapsible=0;recursiveResize=0;outlineConnect=0;portConstraint=eastwest;newEdgeStyle={&quot;curved&quot;:0,&quot;rounded&quot;:0};labelBackgroundColor=none;fillColor=#A8DADC;strokeColor=#457B9D;fontColor=#1D3557;" parent="1" vertex="1">
          <mxGeometry x="920" y="1070" width="130" height="410" as="geometry" />
        </mxCell>
        <mxCell id="EBZgVdZOEo4wGRid4a5R-15" value="" style="html=1;points=[[0,0,0,0,5],[0,1,0,0,-5],[1,0,0,0,5],[1,1,0,0,-5]];perimeter=orthogonalPerimeter;outlineConnect=0;targetShapes=umlLifeline;portConstraint=eastwest;newEdgeStyle={&quot;curved&quot;:0,&quot;rounded&quot;:0};labelBackgroundColor=none;fillColor=#A8DADC;strokeColor=#457B9D;fontColor=#1D3557;" parent="EBZgVdZOEo4wGRid4a5R-14" vertex="1">
          <mxGeometry x="57.5" y="40" width="15" height="20" as="geometry" />
        </mxCell>
        <mxCell id="EBZgVdZOEo4wGRid4a5R-16" value="Create" style="html=1;verticalAlign=bottom;endArrow=open;dashed=1;endSize=8;curved=0;rounded=0;strokeColor=#457B9D;fontColor=default;labelBackgroundColor=none;" parent="1" edge="1">
          <mxGeometry x="0.0101" relative="1" as="geometry">
            <mxPoint x="720" y="1070" as="sourcePoint" />
            <mxPoint x="920" y="1070" as="targetPoint" />
            <mxPoint as="offset" />
          </mxGeometry>
        </mxCell>
        <mxCell id="EBZgVdZOEo4wGRid4a5R-17" value="ConfirmationScreen" style="shape=umlLifeline;perimeter=lifelinePerimeter;whiteSpace=wrap;html=1;container=1;dropTarget=0;collapsible=0;recursiveResize=0;outlineConnect=0;portConstraint=eastwest;newEdgeStyle={&quot;curved&quot;:0,&quot;rounded&quot;:0};labelBackgroundColor=none;fillColor=#A8DADC;strokeColor=#457B9D;fontColor=#1D3557;" parent="1" vertex="1">
          <mxGeometry x="1100" y="1150" width="130" height="410" as="geometry" />
        </mxCell>
        <mxCell id="EBZgVdZOEo4wGRid4a5R-18" value="" style="html=1;points=[[0,0,0,0,5],[0,1,0,0,-5],[1,0,0,0,5],[1,1,0,0,-5]];perimeter=orthogonalPerimeter;outlineConnect=0;targetShapes=umlLifeline;portConstraint=eastwest;newEdgeStyle={&quot;curved&quot;:0,&quot;rounded&quot;:0};labelBackgroundColor=none;fillColor=#A8DADC;strokeColor=#457B9D;fontColor=#1D3557;" parent="EBZgVdZOEo4wGRid4a5R-17" vertex="1">
          <mxGeometry x="57.5" y="60" width="15" height="70" as="geometry" />
        </mxCell>
        <mxCell id="EBZgVdZOEo4wGRid4a5R-19" value="Create" style="html=1;verticalAlign=bottom;endArrow=open;dashed=1;endSize=8;curved=0;rounded=0;strokeColor=#457B9D;fontColor=default;labelBackgroundColor=none;" parent="1" source="Lms2Rw09FnlUKu-rwCS1-58" edge="1">
          <mxGeometry x="0.0101" relative="1" as="geometry">
            <mxPoint x="889" y="1150" as="sourcePoint" />
            <mxPoint x="1100" y="1150" as="targetPoint" />
            <mxPoint as="offset" />
          </mxGeometry>
        </mxCell>
        <mxCell id="EBZgVdZOEo4wGRid4a5R-20" value="" style="endArrow=open;endFill=1;endSize=12;html=1;rounded=0;strokeColor=#457B9D;fontColor=default;labelBackgroundColor=none;" parent="1" edge="1">
          <mxGeometry width="160" relative="1" as="geometry">
            <mxPoint x="720" y="1220" as="sourcePoint" />
            <mxPoint x="1159.4999999999998" y="1220" as="targetPoint" />
          </mxGeometry>
        </mxCell>
        <mxCell id="EBZgVdZOEo4wGRid4a5R-21" value="Display()" style="edgeLabel;html=1;align=center;verticalAlign=middle;resizable=0;points=[];" parent="EBZgVdZOEo4wGRid4a5R-20" vertex="1" connectable="0">
          <mxGeometry x="-0.165" y="2" relative="1" as="geometry">
            <mxPoint x="17" y="-8" as="offset" />
          </mxGeometry>
        </mxCell>
        <mxCell id="EBZgVdZOEo4wGRid4a5R-25" value="InfoScreen" style="shape=umlLifeline;perimeter=lifelinePerimeter;whiteSpace=wrap;html=1;container=1;dropTarget=0;collapsible=0;recursiveResize=0;outlineConnect=0;portConstraint=eastwest;newEdgeStyle={&quot;curved&quot;:0,&quot;rounded&quot;:0};labelBackgroundColor=none;fillColor=#A8DADC;strokeColor=#457B9D;fontColor=#1D3557;" parent="1" vertex="1">
          <mxGeometry x="1220" y="1360" width="130" height="200" as="geometry" />
        </mxCell>
        <mxCell id="EBZgVdZOEo4wGRid4a5R-26" value="" style="html=1;points=[[0,0,0,0,5],[0,1,0,0,-5],[1,0,0,0,5],[1,1,0,0,-5]];perimeter=orthogonalPerimeter;outlineConnect=0;targetShapes=umlLifeline;portConstraint=eastwest;newEdgeStyle={&quot;curved&quot;:0,&quot;rounded&quot;:0};labelBackgroundColor=none;fillColor=#A8DADC;strokeColor=#457B9D;fontColor=#1D3557;" parent="EBZgVdZOEo4wGRid4a5R-25" vertex="1">
          <mxGeometry x="57.5" y="60" width="15" height="30" as="geometry" />
        </mxCell>
        <mxCell id="EBZgVdZOEo4wGRid4a5R-27" value="Create" style="html=1;verticalAlign=bottom;endArrow=open;dashed=1;endSize=8;curved=0;rounded=0;strokeColor=#457B9D;fontColor=default;labelBackgroundColor=none;" parent="1" edge="1">
          <mxGeometry x="0.0101" relative="1" as="geometry">
            <mxPoint x="720" y="1360" as="sourcePoint" />
            <mxPoint x="1220" y="1360" as="targetPoint" />
            <mxPoint as="offset" />
          </mxGeometry>
        </mxCell>
        <mxCell id="EBZgVdZOEo4wGRid4a5R-28" value="" style="endArrow=open;endFill=1;endSize=12;html=1;rounded=0;strokeColor=#457B9D;fontColor=default;labelBackgroundColor=none;" parent="1" source="EBZgVdZOEo4wGRid4a5R-24" edge="1">
          <mxGeometry width="160" relative="1" as="geometry">
            <mxPoint x="840" y="1430" as="sourcePoint" />
            <mxPoint x="1279.4999999999998" y="1430" as="targetPoint" />
          </mxGeometry>
        </mxCell>
        <mxCell id="EBZgVdZOEo4wGRid4a5R-29" value="Display()" style="edgeLabel;html=1;align=center;verticalAlign=middle;resizable=0;points=[];" parent="EBZgVdZOEo4wGRid4a5R-28" vertex="1" connectable="0">
          <mxGeometry x="-0.165" y="2" relative="1" as="geometry">
            <mxPoint x="17" y="-8" as="offset" />
          </mxGeometry>
        </mxCell>
      </root>
    </mxGraphModel>
  </diagram>
</mxfile>
